<!DOCTYPE svg PUBLIC "-//W3C//DTD SVG 1.1//EN" "http://www.w3.org/Graphics/SVG/1.1/DTD/svg11.dtd">
<!-- Uploaded to: SVG Repo, www.svgrepo.com, Transformed by: SVG Repo Mixer Tools -->
<svg height="800px" width="800px" version="1.1" id="Layer_1" xmlns="http://www.w3.org/2000/svg" xmlns:xlink="http://www.w3.org/1999/xlink" viewBox="0 0 512 512" xml:space="preserve" fill="#000000">
<g id="SVGRepo_bgCarrier" stroke-width="0"/>
<g id="SVGRepo_tracerCarrier" stroke-linecap="round" stroke-linejoin="round"/>
<g id="SVGRepo_iconCarrier"> <path style="fill:#4FC0E8;" d="M0,256.006C0,397.402,114.606,512.004,255.996,512C397.394,512.004,512,397.402,512,256.006 C512.009,114.61,397.394,0,255.996,0C114.606,0,0,114.614,0,256.006z"/> <path style="fill:#3DAED9;" d="M509.311,293.131c-26.758-26.771-68.462-68.443-68.624-68.572c-1.004-1.379-2.437-2.439-4.166-2.93 l-15.648-4.438c-0.321-0.329-0.665-0.627-0.999-0.94c-14.457-14.459-133.651-133.65-133.948-133.936 c-9.892-10.32-23.71-16.807-39.061-16.807c-29.968,0-54.352,24.501-54.352,54.619c0,14.439,5.702,27.477,14.845,37.237 c0.372,0.429,30.739,30.768,31.971,32.001v44.739c-0.218-0.229-0.457-0.431-0.7-0.631c-0.411-0.59-15.807-15.902-16.352-16.352 c-1.798-2.582-5.02-3.961-8.246-3.131l-29.184,7.296L77.614,190.65c-2.339-0.671-4.884-0.202-6.843,1.273 c-1.951,1.474-3.102,3.779-3.102,6.229v179.69c0,2.435,1.173,4.614,2.996,6.062c0.362,0.497,95.527,95.55,119.55,119.552 c20.992,5.565,43.037,8.545,65.78,8.544C384.784,512.003,491.328,416.926,509.311,293.131z"/> <g> <path style="fill:#F4F6F9;" d="M436.521,221.629l-109.237-30.982c-0.657-0.189-1.336-0.267-2.019-0.276 c-0.037,0-0.068-0.021-0.107-0.021c-0.087,0-0.159,0.047-0.245,0.049c-0.429,0.014-0.859,0.017-1.286,0.102l-39.013,7.803 c-4.222,0.846-6.964,4.957-6.118,9.182c0.838,4.222,4.907,6.964,9.182,6.118l29.679-5.936v163.687l-124.843,27.743V235.455 l25.298-6.324c4.183-1.044,6.729-5.28,5.677-9.463c-1.044-4.176-5.28-6.751-9.456-5.677l-29.184,7.296L77.613,190.651 c-2.339-0.671-4.884-0.202-6.843,1.273c-1.951,1.474-3.101,3.779-3.101,6.229v179.69c0,3.49,2.317,6.553,5.677,7.505 l109.237,30.982c0.669,0.193,1.357,0.275,2.046,0.281c0.028,0,0.051,0.016,0.08,0.016c0.08,0,0.145-0.043,0.224-0.045 c0.491-0.015,0.983-0.033,1.468-0.142l138.521-30.78l107.332,30.666c0.701,0.202,1.425,0.301,2.141,0.301 c1.677,0,3.33-0.541,4.702-1.573c1.951-1.474,3.101-3.779,3.101-6.229v-179.69C442.197,225.644,439.881,222.581,436.521,221.629z M83.275,208.496l93.632,26.751v163.256l-93.632-26.559C83.275,371.944,83.275,208.496,83.275,208.496z M426.592,398.48 l-93.632-26.751V208.476l93.632,26.557V398.48z"/> <path style="fill:#F4F6F9;" d="M239.328,174.156v156.641c0,4.309,3.49,7.803,7.803,7.803s7.803-3.493,7.803-7.803V174.074 c26.144-3.938,46.275-26.594,46.275-53.949c0-30.117-24.375-54.619-54.345-54.619s-54.352,24.501-54.352,54.619 C192.512,147.666,212.923,170.449,239.328,174.156z M246.864,81.113c21.358,0,38.739,17.503,38.739,39.013 s-17.38,39.013-38.739,39.013c-21.366,0-38.747-17.503-38.747-39.013S225.498,81.113,246.864,81.113z"/> </g> </g>
</svg>